<svg width="51" height="55" viewBox="0 0 51 55" fill="none" xmlns="http://www.w3.org/2000/svg">
<g filter="url(#filter0_d)">
<path d="M38.8864 14.0617H12.1136C12.1136 14.1718 12.1136 14.282 12.1136 14.3922V33.1955C12.103 34.1078 12.4465 34.99 13.0745 35.6633C13.7025 36.3367 14.5681 36.7508 15.496 36.8219V44.2751C15.5402 45.0122 15.8701 45.7048 16.4181 46.2114C16.9661 46.7179 17.6909 47 18.444 47C19.1972 47 19.9219 46.7179 20.4699 46.2114C21.0179 45.7048 21.3478 45.0122 21.3921 44.2751V36.842H29.6283V44.2751C29.6726 45.0122 30.0025 45.7048 30.5505 46.2114C31.0985 46.7179 31.8232 47 32.5764 47C33.3296 47 34.0543 46.7179 34.6023 46.2114C35.1503 45.7048 35.4802 45.0122 35.5245 44.2751V36.8219C36.4532 36.7509 37.32 36.3371 37.9496 35.664C38.5793 34.991 38.925 34.1088 38.917 33.1955V14.4023C38.9068 14.2921 38.8966 14.1819 38.8864 14.0617Z" fill="#A4C639"/>
<path d="M6.95318 15.7446C7.73371 15.7446 8.48226 16.0486 9.03417 16.5897C9.58609 17.1307 9.89615 17.8646 9.89615 18.6297V31.0317C9.89749 31.4114 9.82236 31.7876 9.67507 32.1388C9.52777 32.49 9.31121 32.8093 9.03779 33.0782C8.76438 33.3472 8.4395 33.5606 8.08177 33.7062C7.72405 33.8518 7.34052 33.9268 6.95318 33.9268C6.16995 33.9268 5.4188 33.6218 4.86497 33.0788C4.31114 32.5359 4 31.7995 4 31.0317V18.6297C4 18.25 4.07646 17.874 4.22499 17.5233C4.37353 17.1726 4.59122 16.8541 4.86558 16.5861C5.13995 16.3181 5.46558 16.1058 5.82382 15.9614C6.18206 15.817 6.56585 15.7433 6.95318 15.7446Z" fill="#A4C639"/>
<path d="M44.057 15.7446C44.8375 15.7446 45.5861 16.0486 46.138 16.5897C46.6899 17.1307 47 17.8646 47 18.6297V31.0317C47.0013 31.4114 46.9262 31.7876 46.7789 32.1388C46.6316 32.49 46.415 32.8093 46.1416 33.0782C45.8682 33.3472 45.5433 33.5606 45.1856 33.7062C44.8279 33.8518 44.4444 33.9268 44.057 33.9268C43.2738 33.9268 42.5226 33.6218 41.9688 33.0788C41.415 32.5359 41.1038 31.7995 41.1038 31.0317V18.6297C41.1038 18.25 41.1803 17.874 41.3288 17.5233C41.4774 17.1726 41.6951 16.8541 41.9694 16.5861C42.2438 16.3181 42.5694 16.1058 42.9277 15.9614C43.2859 15.817 43.6697 15.7433 44.057 15.7446Z" fill="#A4C639"/>
<path d="M12.1749 12.0581H38.7433C38.6757 9.30184 37.5048 6.68226 35.4836 4.76521L38.0485 0.497656C38.0753 0.460664 38.0936 0.418348 38.1019 0.373689C38.1103 0.32903 38.1086 0.283115 38.0969 0.239179C38.0852 0.195243 38.0638 0.154355 38.0343 0.119396C38.0047 0.0844363 37.9677 0.0562562 37.9258 0.0368408C37.8548 -0.000483829 37.7719 -0.00986479 37.6941 0.010608C37.6163 0.0310808 37.5493 0.079868 37.5069 0.147036L35.0851 4.30439C32.3256 2.19779 28.9549 1.00508 25.4591 0.898365C21.9845 1.03299 18.6384 2.22325 15.8843 4.30439L13.5033 0.187107C13.4658 0.112239 13.4 0.0546621 13.3198 0.0266048C13.2397 -0.00145257 13.1516 0.00221937 13.0741 0.0368408C13.0049 0.0802746 12.9548 0.147693 12.934 0.225666C12.9132 0.303639 12.9231 0.386444 12.9617 0.457585L15.4551 4.69508C13.4128 6.62849 12.2336 9.27542 12.1749 12.0581ZM29.8736 6.84889C29.8736 6.45036 30.0351 6.06816 30.3225 5.78635C30.61 5.50455 30.9998 5.34623 31.4064 5.34623C31.8129 5.34623 32.2028 5.50455 32.4902 5.78635C32.7777 6.06816 32.9391 6.45036 32.9391 6.84889C32.9391 7.24742 32.7777 7.62963 32.4902 7.91143C32.2028 8.19324 31.8129 8.35155 31.4064 8.35155C30.9998 8.35155 30.61 8.19324 30.3225 7.91143C30.0351 7.62963 29.8736 7.24742 29.8736 6.84889ZM18.49 6.84889C18.49 6.45036 18.6515 6.06816 18.939 5.78635C19.2264 5.50455 19.6163 5.34623 20.0228 5.34623C20.4293 5.34623 20.8192 5.50455 21.1067 5.78635C21.3941 6.06816 21.5556 6.45036 21.5556 6.84889C21.5556 7.24742 21.3941 7.62963 21.1067 7.91143C20.8192 8.19324 20.4293 8.35155 20.0228 8.35155C19.6163 8.35155 19.2264 8.19324 18.939 7.91143C18.6515 7.62963 18.49 7.24742 18.49 6.84889Z" fill="#A4C639"/>
</g>
<defs>
<filter id="filter0_d" x="0" y="0" width="51" height="55" filterUnits="userSpaceOnUse" color-interpolation-filters="sRGB">
<feFlood flood-opacity="0" result="BackgroundImageFix"/>
<feColorMatrix in="SourceAlpha" type="matrix" values="0 0 0 0 0 0 0 0 0 0 0 0 0 0 0 0 0 0 127 0"/>
<feOffset dy="4"/>
<feGaussianBlur stdDeviation="2"/>
<feColorMatrix type="matrix" values="0 0 0 0 0 0 0 0 0 0 0 0 0 0 0 0 0 0 0.25 0"/>
<feBlend mode="normal" in2="BackgroundImageFix" result="effect1_dropShadow"/>
<feBlend mode="normal" in="SourceGraphic" in2="effect1_dropShadow" result="shape"/>
</filter>
</defs>
</svg>
